<svg width="30" height="30" viewBox="0 0 30 30" fill="none" xmlns="http://www.w3.org/2000/svg">
<path d="M25.3333 15.4021V12.5977C25.3333 8.50652 22.2393 5.039 18 3.90645V2.63672C18 1.18283 16.6542 0 15 0C13.3458 0 12 1.18283 12 2.63672V3.90645C7.76072 5.039 4.66673 8.50646 4.66673 12.5977V15.4021C4.66673 18.9957 3.1082 22.4033 0.278277 24.9971C0.00094458 25.2513 -0.0769886 25.6264 0.0802109 25.9503C0.23741 26.2742 0.599409 26.4844 1.00007 26.4844H10.1006C10.5652 28.4878 12.5854 30 15 30C17.4147 30 19.4348 28.4878 19.8994 26.4844H29C29.4007 26.4844 29.7626 26.2742 29.9198 25.9503C30.077 25.6264 29.9991 25.2513 29.7218 24.9971C26.8919 22.4033 25.3333 18.9957 25.3333 15.4021ZM14 2.63672C14 2.15209 14.4486 1.75781 15 1.75781C15.5514 1.75781 16 2.15209 16 2.63672V3.55828C15.6709 3.53039 15.3374 3.51562 15 3.51562C14.6627 3.51562 14.3292 3.53039 14 3.55828V2.63672ZM15 28.2422C13.6964 28.2422 12.5848 27.5074 12.172 26.4844H17.828C17.4152 27.5074 16.3037 28.2422 15 28.2422ZM3.1554 24.7266C5.43279 22.0434 6.66672 18.7964 6.66672 15.4021V12.5977C6.66672 8.55908 10.405 5.27344 15 5.27344C19.595 5.27344 23.3333 8.55908 23.3333 12.5977V15.4021C23.3333 18.7964 24.5673 22.0434 26.8447 24.7266H3.1554Z" fill="white"/>
<path d="M28.0009 12.5973C28.0009 13.0826 28.4486 13.4762 29.0009 13.4762C29.5531 13.4762 30.0009 13.0826 30.0009 12.5973C30.0009 9.07577 28.4406 5.76505 25.6075 3.27499C25.217 2.9318 24.5838 2.93175 24.1933 3.27499C23.8028 3.61823 23.8028 4.17469 24.1933 4.51794C26.6487 6.676 28.0009 9.54528 28.0009 12.5973Z" fill="white"/>
<path d="M0.999997 13.4761C1.55226 13.4761 1.99999 13.0826 1.99999 12.5972C1.99999 9.5453 3.35226 6.67603 5.80758 4.51796C6.19811 4.17472 6.19811 3.61825 5.80758 3.27501C5.41712 2.93177 4.78392 2.93177 4.39339 3.27501C1.56026 5.76507 0 9.07573 0 12.5972C0 13.0826 0.447732 13.4761 0.999997 13.4761Z" fill="white"/>
</svg>
