<svg width="30" height="30" viewBox="0 0 30 30" fill="none" xmlns="http://www.w3.org/2000/svg">
<path d="M29.9993 11.9259C29.9993 5.3499 24.4221 0 17.5671 0C10.7119 0 5.13477 5.34996 5.13477 11.9259C5.13477 18.5019 10.7119 23.8519 17.5671 23.8519C18.1435 23.8519 18.7219 23.8137 19.2905 23.7383C21.9309 25.657 23.8801 26.7072 25.0881 26.8607C25.1302 26.8659 25.1725 26.8686 25.2139 26.8686C25.6019 26.8686 25.9611 26.6474 26.175 26.2765C26.414 25.8615 26.4296 25.3351 26.2167 24.9053C26.2068 24.8849 25.2745 22.9392 25.5434 21.0806C28.3798 18.8101 29.9993 15.4921 29.9993 11.9259ZM14.1907 13.7271C13.1735 13.7271 12.3492 12.7839 12.3492 11.6205C12.3492 10.4571 13.1735 9.51393 14.1907 9.51393C15.2078 9.51393 16.0325 10.4571 16.0325 11.6205C16.0325 12.7839 15.2078 13.7271 14.1907 13.7271ZM20.9437 13.7271C19.9264 13.7271 19.1018 12.7839 19.1018 11.6205C19.1018 10.4571 19.9264 9.51393 20.9437 9.51393C21.9607 9.51393 22.7853 10.4571 22.7853 11.6205C22.7853 12.7839 21.9607 13.7271 20.9437 13.7271Z" fill="white"/>
<path d="M7.76191 21.467C6.52833 20.2987 5.55593 18.931 4.87211 17.4022C4.15108 15.7905 3.78554 14.0759 3.78554 12.3062C3.78554 10.5365 4.15113 8.82203 4.87211 7.21024C4.9273 7.08688 4.9851 6.96503 5.04397 6.84375C1.99902 8.83925 0 12.1697 0 15.9346C0 19.317 1.59289 22.4531 4.37569 24.5627C4.88966 26.8739 3.69696 29.3191 3.68436 29.3442C3.61328 29.4875 3.61853 29.6645 3.69784 29.8021C3.76931 29.9261 3.89 29.9995 4.01809 29.9995C4.03225 29.9995 4.04637 29.9986 4.06069 29.9968C5.45294 29.8199 7.90466 28.2013 9.76201 26.8365C10.3875 26.9336 11.027 26.9827 11.665 26.9827C14.105 26.9827 16.372 26.269 18.2466 25.0511C17.8278 25.0895 17.4059 25.1099 16.9853 25.1099C13.5179 25.1099 10.2424 23.8162 7.76191 21.467Z" fill="white"/>
</svg>
