<svg width="19" height="24" viewBox="0 0 19 24" fill="none" xmlns="http://www.w3.org/2000/svg">
<path d="M18.0179 7.70567H6.91727L11.8883 2.73464C12.1629 2.46005 12.1629 2.01483 11.8883 1.74018L10.6287 0.480553C9.98793 -0.160184 8.94908 -0.160184 8.30829 0.480553L7.01313 1.77576L6.35013 1.11276C5.61906 0.381646 4.42942 0.381693 3.6983 1.11276L1.11276 3.6983C0.381646 4.42942 0.381646 5.61906 1.11276 6.35017L1.77572 7.01318L0.480553 8.30834C-0.160184 8.94908 -0.160184 9.98793 0.480553 10.6287L1.74018 11.8883C2.01473 12.1629 2.46 12.163 2.73459 11.8883L4.51684 10.1061V20.9538C4.51684 22.6366 5.88109 24.0009 7.56396 24.0009H14.9708C16.6537 24.0009 18.0179 22.6366 18.0179 20.9538V7.70567ZM2.77017 6.01867L2.10722 5.35572C1.92445 5.17295 1.92445 4.87553 2.10722 4.69271L4.69276 2.10717C4.87557 1.92436 5.173 1.9244 5.35572 2.10717L6.01867 2.77017L2.77017 6.01867ZM8.84206 20.0631C8.84206 20.4514 8.52725 20.7662 8.13889 20.7662C7.75052 20.7662 7.43571 20.4514 7.43571 20.0631V11.6435C7.43571 11.2552 7.75052 10.9403 8.13889 10.9403C8.52725 10.9403 8.84206 11.2552 8.84206 11.6435V20.0631ZM11.9706 20.0631C11.9706 20.4514 11.6557 20.7662 11.2674 20.7662C10.879 20.7662 10.5642 20.4514 10.5642 20.0631V11.6435C10.5642 11.2552 10.879 10.9403 11.2674 10.9403C11.6557 10.9403 11.9706 11.2552 11.9706 11.6435V20.0631ZM15.0991 20.0631C15.0991 20.4514 14.7842 20.7662 14.3959 20.7662C14.0075 20.7662 13.6927 20.4514 13.6927 20.0631V11.6435C13.6927 11.2552 14.0075 10.9403 14.3959 10.9403C14.7842 10.9403 15.0991 11.2552 15.0991 11.6435V20.0631Z" fill="black"/>
<path d="M12.0511 5.32162C11.6221 5.47115 11.3212 5.85417 11.2715 6.29859H18.0183V5.1299C18.0183 4.32744 17.2287 3.76269 16.4704 4.0198L12.0656 5.31693C12.0609 5.31829 12.0558 5.32017 12.0511 5.32162Z" fill="black"/>
</svg>
