<svg width="23" height="23" viewBox="0 0 23 23" fill="none" xmlns="http://www.w3.org/2000/svg">
<path d="M18.6434 9.97098C18.2712 9.97098 17.9695 10.2727 17.9695 10.6448V20.5281C17.9695 21.1474 17.4657 21.6512 16.8464 21.6512H2.47081C1.85154 21.6512 1.34772 21.1474 1.34772 20.5281V6.15245C1.34772 5.53318 1.85154 5.02936 2.47081 5.02936H12.3541C12.7262 5.02936 13.0279 4.72765 13.0279 4.3555C13.0279 3.98335 12.7262 3.68164 12.3541 3.68164H2.47081C1.10841 3.68164 0 4.79005 0 6.15245V20.5281C0 21.8905 1.10841 22.9989 2.47081 22.9989H16.8464C18.2088 22.9989 19.3173 21.8905 19.3173 20.5281V10.6448C19.3173 10.2727 19.0155 9.97098 18.6434 9.97098Z" fill="white"/>
<path d="M22.539 1.73044L21.2683 0.459773C20.6553 -0.153258 19.6578 -0.153258 19.0447 0.459773L8.87964 10.6249C8.78557 10.7189 8.72146 10.8388 8.69532 10.9692L8.05996 14.1458C8.0158 14.3668 8.08494 14.5952 8.24428 14.7545C8.37191 14.8821 8.54384 14.9518 8.72075 14.9518C8.76473 14.9518 8.80893 14.9475 8.85287 14.9388L12.0295 14.3034C12.1599 14.2773 12.2797 14.2132 12.3738 14.1191L22.539 3.95404C22.539 3.95404 22.539 3.95404 22.539 3.95399C23.152 3.34101 23.152 2.34352 22.539 1.73044ZM11.5651 13.0219L9.57978 13.419L9.97691 11.4336L18.2505 3.15988L19.8389 4.7482L11.5651 13.0219ZM21.586 3.00107L20.7918 3.79523L19.2035 2.20691L19.9976 1.41279C20.0852 1.32519 20.2277 1.32514 20.3153 1.41274L21.5859 2.68341C21.6736 2.77097 21.6736 2.91351 21.586 3.00107Z" fill="white"/>
</svg>
