<svg width="30" height="30" viewBox="0 0 30 30" fill="none" xmlns="http://www.w3.org/2000/svg">
<path d="M29.8236 10.8986L28.2502 8.80078L27.3754 14.9245C27.2953 15.4855 27.0304 16.0152 26.6296 16.416L15.8573 27.1883C14.9177 28.128 13.667 28.6456 12.3356 28.6456C11.9377 28.6456 11.5473 28.5984 11.1699 28.5085C11.743 29.4044 12.7459 30.0001 13.8861 30.0001H26.7767C28.5537 30.0001 29.9994 28.5544 29.9994 26.7775V11.4259C29.9994 11.2358 29.9377 11.0507 29.8236 10.8986Z" fill="white"/>
<path d="M18.1367 14.6016C18.6221 14.6016 19.0156 14.2081 19.0156 13.7227C19.0156 13.2372 18.6221 12.8438 18.1367 12.8438C17.6513 12.8438 17.2578 13.2372 17.2578 13.7227C17.2578 14.2081 17.6513 14.6016 18.1367 14.6016Z" fill="white"/>
<path d="M8.19336 14.6016C8.67877 14.6016 9.07227 14.2081 9.07227 13.7227C9.07227 13.2372 8.67877 12.8438 8.19336 12.8438C7.70795 12.8438 7.31445 13.2372 7.31445 13.7227C7.31445 14.2081 7.70795 14.6016 8.19336 14.6016Z" fill="white"/>
<path d="M14.615 25.9453L25.3873 15.1729C25.5218 15.0384 25.609 14.864 25.6359 14.6757L26.8789 5.97498C26.918 5.70112 26.826 5.42479 26.6303 5.2292L24.7659 3.36475L22.28 5.85071L22.9015 6.47221C23.2447 6.81539 23.2447 7.37192 22.9015 7.71516C22.7299 7.88678 22.5049 7.97262 22.28 7.97262C22.0552 7.97262 21.8302 7.88678 21.6586 7.71516L19.1726 5.2292C18.8294 4.88602 18.8294 4.3295 19.1726 3.98625C19.5158 3.64307 20.0723 3.64307 20.4156 3.98625L21.0371 4.60776L23.523 2.1218L21.6585 0.257347C21.4629 0.0617022 21.1866 -0.0300556 20.9128 0.00873344L12.2119 1.25174C12.0237 1.27864 11.8492 1.36588 11.7148 1.50035L0.942408 12.2727C-0.314136 13.5292 -0.314136 15.5738 0.942408 16.8302L10.0574 25.9453C10.6857 26.5736 11.511 26.8876 12.3362 26.8876C13.1614 26.8876 13.9867 26.5736 14.615 25.9453ZM18.1367 11.0861C19.5906 11.0861 20.7734 12.2689 20.7734 13.7228C20.7734 15.1767 19.5906 16.3596 18.1367 16.3596C16.6828 16.3596 15.5 15.1767 15.5 13.7228C15.5 12.2689 16.6828 11.0861 18.1367 11.0861ZM8.19298 16.3596C6.73909 16.3596 5.55626 15.1767 5.55626 13.7228C5.55626 12.2689 6.73909 11.0861 8.19298 11.0861C9.64686 11.0861 10.8297 12.2689 10.8297 13.7228C10.8297 15.1767 9.64692 16.3596 8.19298 16.3596ZM11.0934 20.8168C11.0013 20.8168 10.9075 20.8022 10.8153 20.7715C10.3549 20.618 10.106 20.1203 10.2595 19.6597L14.4026 7.23006C14.5561 6.76957 15.0539 6.52073 15.5144 6.67418C15.9749 6.8277 16.2237 7.32539 16.0703 7.78594L11.9271 20.2156C11.8043 20.5838 11.4613 20.8168 11.0934 20.8168Z" fill="white"/>
<path d="M26.6308 1.50034C26.974 1.15715 26.974 0.60063 26.6308 0.257388C26.2876 -0.0857959 25.7311 -0.0857959 25.3878 0.257388L23.5234 2.12184L24.7664 3.36479L26.6308 1.50034Z" fill="white"/>
</svg>
