<svg width="30" height="30" viewBox="0 0 30 30" fill="none" xmlns="http://www.w3.org/2000/svg">
<path d="M17.2038 13.2812C16.3946 13.2812 15.7363 14.0529 15.7363 15.0014C15.7363 15.9499 16.3946 16.7215 17.2038 16.7215C18.013 16.7215 18.6713 15.9499 18.6713 15.0014C18.6713 14.0529 18.013 13.2812 17.2038 13.2812Z" fill="#990000"/>
<path d="M18.1758 8.06641V11.1683C18.9294 11.4313 19.5745 11.9917 20.0117 12.7334L22.5287 11.7747C21.6727 9.84121 20.0725 8.43035 18.1758 8.06641Z" fill="#990000"/>
<path d="M23.1299 13.9414L20.6122 14.9003C20.6129 14.9339 20.6145 14.9672 20.6145 15.0008C20.6145 15.9141 20.3514 16.7562 19.9102 17.4302L21.4647 19.938C22.5357 18.6679 23.198 16.9234 23.198 15.0008C23.198 14.6408 23.1747 14.287 23.1299 13.9414Z" fill="#990000"/>
<path d="M17.2032 0H5.37827C4.84149 0 4.40632 0.5101 4.40632 1.13929C4.40632 1.76849 4.84149 2.27859 5.37827 2.27859H10.4306C9.36465 3.06108 8.40353 4.02207 7.57824 5.12613H0.971955C0.435177 5.1262 0 5.63637 0 6.26557C0 6.89476 0.435177 7.40486 0.971955 7.40486H6.17216C5.05079 9.634 4.40626 12.2303 4.40626 15C4.40626 18.2229 5.27808 21.2115 6.75945 23.6592H4.00167C3.46489 23.6592 3.02971 24.1693 3.02971 24.7985C3.02971 25.4277 3.46489 25.9378 4.00167 25.9378H8.45591C9.06195 26.6042 9.72318 27.2021 10.4306 27.7214H1.07221C0.535431 27.7214 0.100254 28.2315 0.100254 28.8607C0.100254 29.4899 0.535431 30 1.07221 30H17.2032C24.2594 30 30 23.271 30 15C30 6.72896 24.2594 0 17.2032 0ZM21.9245 22.4767C21.9067 22.4945 21.8889 22.5123 21.8696 22.5286C21.848 22.5471 21.8257 22.5643 21.8033 22.5804C20.5046 23.6663 18.9164 24.3059 17.2032 24.3059C15.4899 24.3059 13.9017 23.6663 12.603 22.5804C12.5805 22.5643 12.5584 22.5471 12.5367 22.5286C12.5175 22.5122 12.4997 22.4943 12.4818 22.4767C10.5309 20.7796 9.2641 18.0601 9.2641 15C9.2641 9.86875 12.8256 5.69413 17.2032 5.69413C21.5808 5.69413 25.1422 9.86875 25.1422 15C25.1422 18.0602 23.8755 20.7796 21.9245 22.4767Z" fill="#990000"/>
<path d="M11.8789 11.7747L14.3958 12.7334C14.8331 11.9918 15.4782 11.4314 16.2318 11.1683V8.06641C14.3351 8.43042 12.735 9.84121 11.8789 11.7747Z" fill="#990000"/>
<path d="M18.3395 18.7695C17.9841 18.9171 17.6021 18.9982 17.204 18.9982C16.806 18.9982 16.4239 18.9171 16.0685 18.7695L14.5137 21.2779C15.3232 21.7564 16.2372 22.0265 17.204 22.0265C18.1709 22.0265 19.0848 21.7565 19.8943 21.2779L18.3395 18.7695Z" fill="#990000"/>
<path d="M13.7907 15.0008C13.7907 14.9672 13.7921 14.9339 13.7928 14.9003L11.2751 13.9414C11.2304 14.287 11.207 14.6408 11.207 15.0008C11.207 16.9235 11.8694 18.668 12.9405 19.9381L14.495 17.4302C14.0538 16.7563 13.7907 15.9141 13.7907 15.0008Z" fill="#990000"/>
</svg>
