<svg width="30" height="30" viewBox="0 0 30 30" fill="none" xmlns="http://www.w3.org/2000/svg">
<path d="M17.2032 0H5.37827C4.84149 0 4.40632 0.5101 4.40632 1.13929C4.40632 1.76849 4.84149 2.27859 5.37827 2.27859H10.4306C9.36465 3.06108 8.40353 4.02207 7.57824 5.12613H0.971955C0.435177 5.1262 0 5.63637 0 6.26557C0 6.89476 0.435177 7.40486 0.971955 7.40486H6.17216C5.05079 9.634 4.40626 12.2303 4.40626 15C4.40626 18.2229 5.27808 21.2115 6.75945 23.6592H4.00167C3.46489 23.6592 3.02971 24.1693 3.02971 24.7985C3.02971 25.4277 3.46489 25.9378 4.00167 25.9378H8.45591C9.06195 26.6042 9.72318 27.2021 10.4306 27.7214H1.07221C0.535431 27.7214 0.100254 28.2315 0.100254 28.8607C0.100254 29.4899 0.535431 30 1.07221 30H17.2032C24.2594 30 30 23.271 30 15C30 6.72896 24.2594 0 17.2032 0ZM21.9245 22.4767C21.9067 22.4945 21.8889 22.5123 21.8696 22.5286C21.848 22.5471 21.8257 22.5643 21.8033 22.5804C20.5046 23.6663 18.9164 24.3059 17.2032 24.3059C15.4899 24.3059 13.9017 23.6663 12.603 22.5804C12.5805 22.5643 12.5584 22.5471 12.5367 22.5286C12.5175 22.5122 12.4997 22.4943 12.4818 22.4767C10.5309 20.7796 9.2641 18.0601 9.2641 15C9.2641 9.86875 12.8256 5.69413 17.2032 5.69413C21.5808 5.69413 25.1422 9.86875 25.1422 15C25.1422 18.0602 23.8755 20.7796 21.9245 22.4767Z" fill="white"/>
</svg>
