<svg width="30" height="30" viewBox="0 0 30 30" fill="none" xmlns="http://www.w3.org/2000/svg">
<path d="M29.8276 9.28276C29.6809 9.02988 29.462 8.88227 29.2323 8.88227H26.3126C25.5921 6.1971 24.6535 3.5662 23.5865 2.5731C19.8956 -0.857701 10.1057 -0.857701 6.41484 2.5731C5.34713 3.56729 4.41231 6.20144 3.68795 8.88227H0.768268C0.536291 8.88227 0.31814 9.02988 0.172962 9.28276C0.0270166 9.53456 -0.0313617 9.86777 0.0162627 10.1879L0.448723 13.1488C0.522464 13.6535 0.8374 14.0138 1.20073 14.0138H2.06565C1.23069 15.3749 0.825878 17.0886 0.820501 18.8035C0.815124 20.9221 1.38431 22.8367 2.42514 24.1912C2.43666 24.2053 2.44818 24.2151 2.45894 24.2292V28.372C2.45894 29.2696 2.97512 30 3.61114 30H6.30422C6.94024 30 7.45643 29.2696 7.45643 28.372V26.707H22.5434V28.372C22.5434 29.2696 23.0596 30 23.6956 30H26.3887C27.0232 30 27.5409 29.2696 27.5409 28.372V24.3106C28.6455 22.8812 29.1732 20.9145 29.1801 18.9511C29.1847 17.1776 28.7614 15.4009 27.8773 14.0117H28.7999C29.1647 14.0117 29.4797 13.6513 29.5519 13.1455L29.9851 10.1858C30.0296 9.86777 29.9736 9.53674 29.8276 9.28276ZM7.67996 5.29192C10.6219 2.55574 19.3779 2.55574 22.3183 5.29192C22.8898 5.82157 23.6249 7.96297 24.2986 10.5852H5.70124C6.37336 7.96406 7.10846 5.82374 7.67996 5.29192ZM4.2341 19.2116C4.2341 17.4425 5.24957 16.0098 6.50087 16.0098C7.7537 16.0098 8.76764 17.4425 8.76764 19.2116C8.76764 20.9807 7.7537 22.4145 6.50087 22.4145C5.24957 22.4145 4.2341 20.9807 4.2341 19.2116ZM23.5289 22.4145C22.2776 22.4145 21.2621 20.9807 21.2621 19.2116C21.2621 17.4425 22.2776 16.0098 23.5289 16.0098C24.7817 16.0098 25.7957 17.4425 25.7957 19.2116C25.7957 20.9807 24.7802 22.4145 23.5289 22.4145Z" fill="white"/>
</svg>
