<svg width="26" height="26" viewBox="0 0 26 26" fill="none" xmlns="http://www.w3.org/2000/svg">
<path d="M20.9802 1.99649H20.0104V1.01517C20.0104 0.454493 19.5559 0 18.9953 0C18.4346 0 17.9801 0.454493 17.9801 1.01517V1.99649H8.01987V1.01517C8.01987 0.454493 7.56537 0 7.00469 0C6.44401 0 5.98952 0.454493 5.98952 1.01517V1.99649H5.01978C2.25186 1.99649 0 4.24835 0 7.01621V20.9686C0 23.7366 2.25186 25.9884 5.01978 25.9884H20.9803C23.7481 25.9884 26 23.7366 26 20.9686V7.01621C26 4.24835 23.7481 1.99649 20.9802 1.99649ZM5.01978 4.02684H5.98952V6.00642C5.98952 6.5671 6.44401 7.0216 7.00469 7.0216C7.56537 7.0216 8.01987 6.5671 8.01987 6.00642V4.02684H17.9801V6.00642C17.9801 6.5671 18.4346 7.0216 18.9953 7.0216C19.556 7.0216 20.0105 6.5671 20.0105 6.00642V4.02684H20.9803C22.6286 4.02684 23.9697 5.36788 23.9697 7.01621V7.98601H2.03035V7.01621C2.03035 5.36788 3.37139 4.02684 5.01978 4.02684ZM20.9802 23.9581H5.01978C3.37139 23.9581 2.03035 22.617 2.03035 20.9686V10.0164H23.9697V20.9686C23.9697 22.617 22.6286 23.9581 20.9802 23.9581ZM9.01814 14.0094C9.01814 14.5701 8.56364 15.0246 8.00296 15.0246H6.00647C5.44579 15.0246 4.9913 14.5701 4.9913 14.0094C4.9913 13.4487 5.44579 12.9942 6.00647 12.9942H8.00296C8.56359 12.9942 9.01814 13.4487 9.01814 14.0094ZM21.0087 14.0094C21.0087 14.5701 20.5543 15.0246 19.9936 15.0246H17.9971C17.4364 15.0246 16.9819 14.5701 16.9819 14.0094C16.9819 13.4487 17.4364 12.9942 17.9971 12.9942H19.9936C20.5542 12.9942 21.0087 13.4487 21.0087 14.0094ZM15.0077 14.0094C15.0077 14.5701 14.5532 15.0246 13.9925 15.0246H11.996C11.4353 15.0246 10.9808 14.5701 10.9808 14.0094C10.9808 13.4487 11.4353 12.9942 11.996 12.9942H13.9925C14.5531 12.9942 15.0077 13.4487 15.0077 14.0094ZM9.01814 19.9989C9.01814 20.5596 8.56364 21.0141 8.00296 21.0141H6.00647C5.44579 21.0141 4.9913 20.5596 4.9913 19.9989C4.9913 19.4382 5.44579 18.9837 6.00647 18.9837H8.00296C8.56359 18.9837 9.01814 19.4382 9.01814 19.9989ZM21.0087 19.9989C21.0087 20.5596 20.5543 21.0141 19.9936 21.0141H17.9971C17.4364 21.0141 16.9819 20.5596 16.9819 19.9989C16.9819 19.4382 17.4364 18.9837 17.9971 18.9837H19.9936C20.5542 18.9837 21.0087 19.4382 21.0087 19.9989ZM15.0077 19.9989C15.0077 20.5596 14.5532 21.0141 13.9925 21.0141H11.996C11.4353 21.0141 10.9808 20.5596 10.9808 19.9989C10.9808 19.4382 11.4353 18.9837 11.996 18.9837H13.9925C14.5531 18.9837 15.0077 19.4382 15.0077 19.9989Z" fill="black"/>
</svg>
