<svg width="10" height="10" viewBox="0 0 10 10" fill="none" xmlns="http://www.w3.org/2000/svg">
<g opacity="0.5">
<path d="M3.79105 8.85456C4.03162 9.09506 4.42169 9.09498 4.66219 8.85456C4.90285 8.6139 4.90285 8.22392 4.6621 7.98326L2.29493 5.61616L9.14981 5.6155C9.49002 5.61542 9.76575 5.33969 9.76575 4.99931C9.76567 4.6591 9.48993 4.38345 9.14972 4.38345L2.2946 4.38411L4.66235 2.01652C4.90293 1.77594 4.90293 1.38579 4.66235 1.1453C4.54202 1.02505 4.3844 0.964844 4.2267 0.964844C4.06908 0.964844 3.91146 1.02505 3.79113 1.14522L0.371861 4.5644C0.256294 4.67988 0.191406 4.83652 0.191406 4.99997C0.191488 5.16342 0.256376 5.31998 0.371943 5.43571L3.79105 8.85456Z" fill="black"/>
</g>
</svg>
