<svg width="7" height="24" viewBox="0 0 7 24" fill="none" xmlns="http://www.w3.org/2000/svg">
<path d="M3.40192 6.80383C5.27765 6.80383 6.80383 5.27765 6.80383 3.40192C6.80383 1.52618 5.27765 0 3.40192 0C1.52618 0 0 1.52618 0 3.40192C0 5.27765 1.52618 6.80383 3.40192 6.80383Z" fill="black"/>
<path d="M3.40192 8.59766C1.52618 8.59766 0 10.1238 0 11.9996C0 13.8753 1.52618 15.4015 3.40192 15.4015C5.27765 15.4015 6.80383 13.8753 6.80383 11.9996C6.80383 10.1238 5.27765 8.59766 3.40192 8.59766Z" fill="black"/>
<path d="M3.40192 17.1953C1.52618 17.1953 0 18.7215 0 20.5972C0 22.4731 1.52618 23.9991 3.40192 23.9991C5.27765 23.9991 6.80383 22.4731 6.80383 20.5972C6.80383 18.7215 5.27765 17.1953 3.40192 17.1953Z" fill="black"/>
</svg>
