<svg width="24" height="28" viewBox="0 0 24 28" fill="none" xmlns="http://www.w3.org/2000/svg">
<path d="M18.1066 19.6077C18.6983 19.6077 19.178 19.128 19.178 18.5363C19.178 17.9445 18.6983 17.4648 18.1066 17.4648C17.5149 17.4648 17.0352 17.9445 17.0352 18.5363C17.0352 19.128 17.5149 19.6077 18.1066 19.6077Z" fill="white"/>
<path d="M22.9286 19.3929C23.5203 19.3929 24 18.9132 24 18.3214V14.3571C24 11.994 22.0774 10.0714 19.7143 10.0714H18.4266V6.29282C18.4266 2.82295 15.5427 0 11.998 0C8.4533 0 5.56945 2.82295 5.56945 6.29282V10.0714H4.28571C1.92257 10.0714 0 11.994 0 14.3571V23.1429C0 25.506 1.92257 27.4286 4.28571 27.4286H19.7143C22.0774 27.4286 24 25.506 24 23.1429C24 22.5511 23.5203 22.0714 22.9286 22.0714C22.3368 22.0714 21.8571 22.5511 21.8571 23.1429C21.8571 24.3244 20.8959 25.2857 19.7143 25.2857H4.28571C3.10414 25.2857 2.14286 24.3244 2.14286 23.1429V14.3571C2.14286 13.1756 3.10414 12.2143 4.28571 12.2143H19.7143C20.8959 12.2143 21.8571 13.1756 21.8571 14.3571V18.3214C21.8571 18.9132 22.3368 19.3929 22.9286 19.3929ZM16.2837 10.0714H7.7123V6.29282C7.7123 4.00452 9.63488 2.14286 11.998 2.14286C14.3612 2.14286 16.2837 4.00452 16.2837 6.29282V10.0714Z" fill="white"/>
<path d="M10.0167 19.6077C10.6085 19.6077 11.0882 19.128 11.0882 18.5363C11.0882 17.9445 10.6085 17.4648 10.0167 17.4648C9.42501 17.4648 8.94531 17.9445 8.94531 18.5363C8.94531 19.128 9.42501 19.6077 10.0167 19.6077Z" fill="white"/>
<path d="M6.00112 19.6077C6.59285 19.6077 7.07254 19.128 7.07254 18.5363C7.07254 17.9445 6.59285 17.4648 6.00112 17.4648C5.40938 17.4648 4.92969 17.9445 4.92969 18.5363C4.92969 19.128 5.40938 19.6077 6.00112 19.6077Z" fill="white"/>
<path d="M14.0363 19.6077C14.628 19.6077 15.1077 19.128 15.1077 18.5363C15.1077 17.9445 14.628 17.4648 14.0363 17.4648C13.4445 17.4648 12.9648 17.9445 12.9648 18.5363C12.9648 19.128 13.4445 19.6077 14.0363 19.6077Z" fill="white"/>
</svg>
