<svg width="20" height="24" viewBox="0 0 20 24" fill="none" xmlns="http://www.w3.org/2000/svg">
<path d="M11.5865 15.9422C11.4969 15.844 11.3835 15.7706 11.2663 15.7095C11.0112 15.5764 10.7321 15.4957 10.4551 15.4229V17.5697C10.9048 17.5189 11.4211 17.3557 11.6572 16.9359C11.7699 16.7353 11.7923 16.489 11.7464 16.2657C11.7215 16.1447 11.67 16.0337 11.5865 15.9422Z" fill="black"/>
<path d="M11.6543 16.9406C11.6552 16.9391 11.6557 16.9382 11.6567 16.9365C11.6559 16.9379 11.6551 16.9392 11.6543 16.9406Z" fill="black"/>
<path d="M8.34424 12.5108C8.26693 12.6237 8.21842 12.752 8.20503 12.8883C8.19165 13.0249 8.19916 13.1769 8.25106 13.3055C8.30047 13.428 8.40399 13.5185 8.51083 13.5913C8.63073 13.6729 8.76259 13.7366 8.89689 13.7906C9.00955 13.8359 9.13628 13.8793 9.27288 13.9212V11.9785C8.92778 12.0522 8.5507 12.2094 8.34424 12.5108Z" fill="black"/>
<path d="M11.6651 16.9209C11.6623 16.9259 11.6592 16.9312 11.6562 16.9367C11.6598 16.9303 11.6625 16.9255 11.6651 16.9209Z" fill="black"/>
<path d="M11.2108 5.22201C13.0365 3.68831 14.2564 0.233111 13.5057 0.0819888C12.5081 -0.118886 10.3419 0.761927 9.29492 0.917115C7.8099 1.09642 6.19251 -0.693219 5.28464 0.304324C4.54648 1.11539 5.81385 4.06499 7.79669 5.34998C1.881 8.25745 -6.43389 22.8532 8.07188 23.9122C28.1431 25.3777 18.0927 8.05528 11.2108 5.22201ZM12.9345 16.7329C12.8728 17.3019 12.5712 17.8165 12.1204 18.1659C11.6445 18.5347 11.0475 18.7063 10.4544 18.7544V19.3831C10.4544 19.5513 10.3809 19.714 10.255 19.8254C10.0819 19.9785 9.82752 20.0163 9.61744 19.9195C9.41001 19.8241 9.27374 19.6113 9.27374 19.3831V18.6959C9.17204 18.6766 9.07106 18.6536 8.97127 18.6262C8.41693 18.4739 7.90274 18.177 7.52714 17.7378C7.34004 17.5188 7.18751 17.2704 7.08202 17.0022C7.05446 16.9321 7.02989 16.8608 7.00838 16.7886C6.98889 16.7232 6.96879 16.6568 6.96184 16.5887C6.95015 16.4745 6.9728 16.3579 7.02605 16.2562C7.1355 16.0468 7.36613 15.9204 7.60163 15.9414C7.83339 15.9619 8.03653 16.1228 8.10949 16.3437C8.13197 16.4117 8.14721 16.4815 8.17246 16.5488C8.19748 16.6157 8.22769 16.6807 8.26321 16.7426C8.33335 16.8644 8.42122 16.9768 8.52242 17.0743C8.73104 17.2753 8.99674 17.4059 9.27374 17.4837V15.1478C8.73211 15.0076 8.17302 14.8265 7.72576 14.4787C7.50839 14.3096 7.32395 14.0996 7.20315 13.8509C7.07569 13.5885 7.02289 13.2961 7.02074 13.0057C7.01854 12.7109 7.07456 12.4186 7.19756 12.15C7.31277 11.8984 7.47863 11.6726 7.68199 11.4854C8.11683 11.0852 8.69444 10.8619 9.2738 10.7799V10.7286V10.1273C9.2738 9.9591 9.34727 9.79635 9.47321 9.68498C9.64635 9.53188 9.9006 9.49405 10.1107 9.59084C10.3181 9.68634 10.4544 9.89901 10.4544 10.1273V10.7286V10.7764C10.5316 10.7861 10.6086 10.7977 10.6852 10.8116C11.2541 10.9146 11.8105 11.1495 12.2266 11.5597C12.4237 11.7539 12.585 11.9854 12.6985 12.2379C12.7301 12.3083 12.7579 12.3803 12.7819 12.4538C12.8042 12.5223 12.8267 12.5928 12.8374 12.6643C12.8544 12.7785 12.837 12.8964 12.7882 13.0008C12.6881 13.2147 12.4637 13.3509 12.2276 13.3408C11.9956 13.3307 11.7854 13.1797 11.7023 12.9628C11.6776 12.8983 11.6652 12.83 11.64 12.7657C11.6145 12.7006 11.5815 12.6385 11.5435 12.5798C11.4696 12.4657 11.3739 12.3679 11.2647 12.2873C11.028 12.1126 10.741 12.0216 10.4543 11.9707V14.206C10.7951 14.2876 11.1362 14.3766 11.4627 14.5054C11.9562 14.7 12.4239 14.9984 12.6933 15.4689C12.6515 15.3956 12.6108 15.3242 12.6947 15.4713C12.777 15.6159 12.7377 15.547 12.6964 15.4746C12.9107 15.8523 12.9811 16.3039 12.9345 16.7329Z" fill="black"/>
<path d="M11.6475 16.9512C11.644 16.9573 11.641 16.9627 11.6387 16.9669C11.6407 16.9633 11.6438 16.9579 11.6475 16.9512Z" fill="black"/>
</svg>
