<svg width="10" height="10" viewBox="0 0 10 10" fill="none" xmlns="http://www.w3.org/2000/svg">
<path d="M6.20895 8.85456C5.96838 9.09506 5.57831 9.09498 5.33781 8.85456C5.09715 8.6139 5.09715 8.22392 5.3379 7.98326L7.70507 5.61616L0.850195 5.6155C0.509985 5.61542 0.234252 5.33969 0.234252 4.99931C0.234334 4.6591 0.510067 4.38345 0.850277 4.38345L7.7054 4.38411L5.33765 2.01652C5.09707 1.77594 5.09707 1.38579 5.33765 1.1453C5.45798 1.02505 5.6156 0.964844 5.7733 0.964844C5.93092 0.964844 6.08854 1.02505 6.20887 1.14522L9.62814 4.5644C9.74371 4.67988 9.80859 4.83652 9.80859 4.99997C9.80851 5.16342 9.74362 5.31998 9.62806 5.43571L6.20895 8.85456Z" fill="black"/>
</svg>
